<svg xmlns="http://www.w3.org/2000/svg" viewBox="0 0 320 220" width="320" height="220"><rect x="0" y="0" width="320" height="220" rx="12" fill="#FBF3E7"/><rect x="0" y="182" width="320" height="38" fill="#DCE7C4"/><circle cx="52.9" cy="39.1" r="16.8" fill="#F0921A"/><line x1="73.8" y1="39.1" x2="81.8" y2="39.1" stroke="#F0921A" stroke-width="3" stroke-linecap="round"/><line x1="67.7" y1="53.8" x2="73.3" y2="59.5" stroke="#F0921A" stroke-width="3" stroke-linecap="round"/><line x1="52.9" y1="59.9" x2="52.9" y2="67.9" stroke="#F0921A" stroke-width="3" stroke-linecap="round"/><line x1="38.2" y1="53.8" x2="32.5" y2="59.5" stroke="#F0921A" stroke-width="3" stroke-linecap="round"/><line x1="32.1" y1="39.1" x2="24.1" y2="39.1" stroke="#F0921A" stroke-width="3" stroke-linecap="round"/><line x1="38.2" y1="24.4" x2="32.5" y2="18.7" stroke="#F0921A" stroke-width="3" stroke-linecap="round"/><line x1="52.9" y1="18.3" x2="52.9" y2="10.3" stroke="#F0921A" stroke-width="3" stroke-linecap="round"/><line x1="67.7" y1="24.4" x2="73.3" y2="18.7" stroke="#F0921A" stroke-width="3" stroke-linecap="round"/><rect x="240.8" y="130.0" width="9.1" height="55.0" rx="2" fill="#7A5C33"/><circle cx="226.2" cy="117.8" r="23.7" fill="#7FA34D"/><circle cx="264.6" cy="117.8" r="23.7" fill="#7FA34D"/><circle cx="245.4" cy="100.3" r="34.9" fill="#7FA34D"/><path d="M16.5 218 Q15.3 211.0 13.5 204.0" stroke="#7C9A54" stroke-width="1.6" fill="none" stroke-linecap="round"/><path d="M19.5 218 Q16.7 211.0 12.5 204.0" stroke="#7C9A54" stroke-width="1.6" fill="none" stroke-linecap="round"/><path d="M22.5 218 Q21.3 211.0 19.5 204.0" stroke="#7C9A54" stroke-width="1.6" fill="none" stroke-linecap="round"/><path d="M52.4 218 Q51.2 211.0 49.4 204.0" stroke="#7C9A54" stroke-width="1.6" fill="none" stroke-linecap="round"/><path d="M55.4 218 Q52.6 211.0 48.4 204.0" stroke="#7C9A54" stroke-width="1.6" fill="none" stroke-linecap="round"/><path d="M58.4 218 Q57.2 211.0 55.4 204.0" stroke="#7C9A54" stroke-width="1.6" fill="none" stroke-linecap="round"/><path d="M117.5 218 Q116.3 211.0 114.5 204.0" stroke="#7C9A54" stroke-width="1.6" fill="none" stroke-linecap="round"/><path d="M120.5 218 Q117.7 211.0 113.5 204.0" stroke="#7C9A54" stroke-width="1.6" fill="none" stroke-linecap="round"/><path d="M123.5 218 Q122.3 211.0 120.5 204.0" stroke="#7C9A54" stroke-width="1.6" fill="none" stroke-linecap="round"/><path d="M166.7 218 Q165.5 211.0 163.7 204.0" stroke="#7C9A54" stroke-width="1.6" fill="none" stroke-linecap="round"/><path d="M169.7 218 Q166.9 211.0 162.7 204.0" stroke="#7C9A54" stroke-width="1.6" fill="none" stroke-linecap="round"/><path d="M172.7 218 Q171.5 211.0 169.7 204.0" stroke="#7C9A54" stroke-width="1.6" fill="none" stroke-linecap="round"/><path d="M209.1 218 Q207.9 211.0 206.1 204.0" stroke="#7C9A54" stroke-width="1.6" fill="none" stroke-linecap="round"/><path d="M212.1 218 Q209.3 211.0 205.1 204.0" stroke="#7C9A54" stroke-width="1.6" fill="none" stroke-linecap="round"/><path d="M215.1 218 Q213.9 211.0 212.1 204.0" stroke="#7C9A54" stroke-width="1.6" fill="none" stroke-linecap="round"/><path d="M275.3 218 Q274.1 211.0 272.3 204.0" stroke="#7C9A54" stroke-width="1.6" fill="none" stroke-linecap="round"/><path d="M278.3 218 Q275.5 211.0 271.3 204.0" stroke="#7C9A54" stroke-width="1.6" fill="none" stroke-linecap="round"/><path d="M281.3 218 Q280.1 211.0 278.3 204.0" stroke="#7C9A54" stroke-width="1.6" fill="none" stroke-linecap="round"/><ellipse cx="132.7" cy="185.1" rx="34" ry="7" fill="#3B3024" fill-opacity="0.15"/><image href="../owl-mascot.png" x="81.2" y="97.1" width="103.0" height="90.0" preserveAspectRatio="xMidYMax meet"/><path d="M163.1 32.7 Q172.1 23.7 181.1 32.7" fill="none" stroke="#A8631A" stroke-width="2.4" stroke-linecap="round"/><path d="M181.1 23.7 Q190.1 19.7 199.1 23.7" fill="none" stroke="#A8631A" stroke-width="2.4" stroke-linecap="round"/><text x="160" y="202" font-family="Verdana, sans-serif" font-size="13" font-weight="600" text-anchor="middle" fill="#8A7A67">In the wild</text></svg>