<svg xmlns="http://www.w3.org/2000/svg" viewBox="0 0 320 220" width="320" height="220"><rect x="0" y="0" width="320" height="220" rx="12" fill="#FBF3E7"/><rect x="0" y="0" width="320" height="140" fill="#7FA7B8" fill-opacity="0.08"/><circle cx="91.3" cy="69.7" r="26.1" fill="#F0921A"/><line x1="121.3" y1="69.7" x2="129.3" y2="69.7" stroke="#F0921A" stroke-width="3" stroke-linecap="round"/><line x1="112.5" y1="91.0" x2="118.2" y2="96.6" stroke="#F0921A" stroke-width="3" stroke-linecap="round"/><line x1="91.3" y1="99.8" x2="91.3" y2="107.8" stroke="#F0921A" stroke-width="3" stroke-linecap="round"/><line x1="70.0" y1="91.0" x2="64.3" y2="96.6" stroke="#F0921A" stroke-width="3" stroke-linecap="round"/><line x1="61.2" y1="69.7" x2="53.2" y2="69.7" stroke="#F0921A" stroke-width="3" stroke-linecap="round"/><line x1="70.0" y1="48.4" x2="64.3" y2="42.8" stroke="#F0921A" stroke-width="3" stroke-linecap="round"/><line x1="91.3" y1="39.6" x2="91.3" y2="31.6" stroke="#F0921A" stroke-width="3" stroke-linecap="round"/><line x1="112.5" y1="48.4" x2="118.2" y2="42.8" stroke="#F0921A" stroke-width="3" stroke-linecap="round"/><g><ellipse cx="175.0" cy="92.0" rx="14.0" ry="10.0" fill="#C7CFC0"/><ellipse cx="205.0" cy="92.0" rx="16.0" ry="11.0" fill="#C7CFC0"/><ellipse cx="190.0" cy="83.0" rx="18.0" ry="13.0" fill="#C7CFC0"/><ellipse cx="190.0" cy="95.0" rx="32.0" ry="10.0" fill="#C7CFC0"/></g><g><ellipse cx="170.0" cy="86.0" rx="14.0" ry="10.0" fill="#FFFFFF"/><ellipse cx="200.0" cy="86.0" rx="16.0" ry="11.0" fill="#FFFFFF"/><ellipse cx="185.0" cy="77.0" rx="18.0" ry="13.0" fill="#FFFFFF"/><ellipse cx="185.0" cy="89.0" rx="32.0" ry="10.0" fill="#FFFFFF"/></g><path d="M131.2 141.9 Q125.2 157.9 131.2 161.9 Q137.2 157.9 131.2 141.9 Z" fill="#7FA7B8"/><path d="M147.7 137.3 Q141.7 153.3 147.7 157.3 Q153.7 153.3 147.7 137.3 Z" fill="#7FA7B8"/><path d="M184.2 145.3 Q178.2 161.3 184.2 165.3 Q190.2 161.3 184.2 145.3 Z" fill="#7FA7B8"/><ellipse cx="160" cy="205" rx="90" ry="8" fill="#7FA7B8" fill-opacity="0.2"/><path d="M120 205 Q160 198 200 205" stroke="#7FA7B8" stroke-width="2" fill="none" opacity="0.5"/><path d="M40 190 A110 110 0 0 1 280 190" fill="none" stroke="#F7A026" stroke-width="6" opacity="0.75"/><path d="M40 190 A98 98 0 0 1 280 190" fill="none" stroke="#BA7517" stroke-width="6" opacity="0.75"/><path d="M40 190 A86 86 0 0 1 280 190" fill="none" stroke="#6E8F3D" stroke-width="6" opacity="0.75"/><path d="M40 190 A74 74 0 0 1 280 190" fill="none" stroke="#7FA7B8" stroke-width="6" opacity="0.75"/><text x="160" y="202" font-family="Verdana, sans-serif" font-size="13" font-weight="600" text-anchor="middle" fill="#8A7A67">Weather &amp; seasons</text></svg>