<svg xmlns="http://www.w3.org/2000/svg" viewBox="0 0 320 220" width="320" height="220"><rect x="0" y="0" width="320" height="220" rx="12" fill="#FBF3E7"/><rect x="0" y="0" width="320" height="70" fill="#7FA7B8" fill-opacity="0.18"/><circle cx="255.6" cy="37.5" r="16.2" fill="#F0921A"/><path d="M0 30 Q30 20 60 30 T120 30 T180 30 T240 30 T300 30" fill="none" stroke="#7FA7B8" stroke-width="3" stroke-opacity="0.5"/><rect x="0" y="182" width="320" height="38" fill="#E4C98F" fill-opacity="0.55"/><circle cx="13.7" cy="207.0" r="1.6" fill="#BA7517" fill-opacity="0.4"/><circle cx="40.8" cy="191.4" r="1.6" fill="#BA7517" fill-opacity="0.4"/><circle cx="88.0" cy="190.5" r="1.6" fill="#BA7517" fill-opacity="0.4"/><circle cx="112.9" cy="195.9" r="1.6" fill="#BA7517" fill-opacity="0.4"/><circle cx="146.9" cy="193.0" r="1.6" fill="#BA7517" fill-opacity="0.4"/><circle cx="177.9" cy="192.2" r="1.6" fill="#BA7517" fill-opacity="0.4"/><circle cx="196.5" cy="207.7" r="1.6" fill="#BA7517" fill-opacity="0.4"/><circle cx="224.5" cy="202.6" r="1.6" fill="#BA7517" fill-opacity="0.4"/><circle cx="262.5" cy="190.2" r="1.6" fill="#BA7517" fill-opacity="0.4"/><circle cx="296.3" cy="194.3" r="1.6" fill="#BA7517" fill-opacity="0.4"/><path d="M33.2 216 Q23.2 197.6 35.2 179.1 Q45.2 168.0 37.2 153.3" fill="none" stroke="#6E8F3D" stroke-width="5" stroke-linecap="round"/><path d="M257.7 216 Q247.7 196.5 259.7 177.1 Q269.7 165.4 261.7 149.8" fill="none" stroke="#6E8F3D" stroke-width="5" stroke-linecap="round"/><path d="M89.8 96.9 L71.8 83.9 L77.8 96.9 L71.8 109.9 Z" fill="#A8631A"/><ellipse cx="111.8" cy="96.9" rx="26" ry="16" fill="#A8631A"/><ellipse cx="115.8" cy="101.9" rx="15" ry="8" fill="#FBF3E7" fill-opacity="0.55"/><polygon points="107.8,80.9 119.8,80.9 113.8,90.9" fill="#A8631A"/><polygon points="109.8,110.9 119.8,112.9 113.8,104.9" fill="#A8631A"/><path d="M105.8 90.9 Q111.8 94.9 105.8 98.9" stroke="#3B3024" stroke-width="1.2" fill="none" opacity="0.5"/><path d="M97.8 94.9 Q103.8 98.9 97.8 102.9" stroke="#3B3024" stroke-width="1.2" fill="none" opacity="0.4"/><circle cx="125.8" cy="92.9" r="5" fill="#FBF3E7"/><circle cx="127.8" cy="92.9" r="2.4" fill="#3B3024"/><path d="M129.8 83.9 Q133.8 94.9 127.8 83.9" fill="#A8631A"/><path d="M206.8 141.3 L196.8 133.3 L196.8 149.3 Z" fill="#C98A2E" fill-opacity="0.85"/><ellipse cx="219.8" cy="141.3" rx="15" ry="9" fill="#C98A2E" fill-opacity="0.85"/><circle cx="227.8" cy="139.3" r="1.6" fill="#FBF3E7"/><text x="160" y="202" font-family="Verdana, sans-serif" font-size="13" font-weight="600" text-anchor="middle" fill="#8A7A67">Ocean &amp; environment</text></svg>