<svg xmlns="http://www.w3.org/2000/svg" viewBox="0 0 320 220" width="320" height="220"><rect x="0" y="0" width="320" height="220" rx="12" fill="#FBF3E7"/><g transform="translate(320,0) scale(-1,1)"><rect x="0" y="182" width="320" height="38" fill="#DCE7C4"/><circle cx="55.1" cy="45.8" r="15.2" fill="#F0921A"/><line x1="74.3" y1="45.8" x2="82.3" y2="45.8" stroke="#F0921A" stroke-width="3" stroke-linecap="round"/><line x1="68.7" y1="59.3" x2="74.3" y2="65.0" stroke="#F0921A" stroke-width="3" stroke-linecap="round"/><line x1="55.1" y1="65.0" x2="55.1" y2="73.0" stroke="#F0921A" stroke-width="3" stroke-linecap="round"/><line x1="41.5" y1="59.3" x2="35.9" y2="65.0" stroke="#F0921A" stroke-width="3" stroke-linecap="round"/><line x1="35.9" y1="45.8" x2="27.9" y2="45.8" stroke="#F0921A" stroke-width="3" stroke-linecap="round"/><line x1="41.5" y1="32.2" x2="35.9" y2="26.6" stroke="#F0921A" stroke-width="3" stroke-linecap="round"/><line x1="55.1" y1="26.6" x2="55.1" y2="18.6" stroke="#F0921A" stroke-width="3" stroke-linecap="round"/><line x1="68.7" y1="32.2" x2="74.3" y2="26.6" stroke="#F0921A" stroke-width="3" stroke-linecap="round"/><rect x="225.2" y="130.0" width="9.8" height="55.0" rx="2" fill="#7A5C33"/><circle cx="209.3" cy="116.8" r="25.7" fill="#7FA34D"/><circle cx="250.8" cy="116.8" r="25.7" fill="#7FA34D"/><circle cx="230.1" cy="97.9" r="37.7" fill="#7FA34D"/><rect x="272.5" y="158.0" width="7.0" height="32.0" rx="2" fill="#7A5C33"/><circle cx="266.1" cy="151.7" r="12.2" fill="#7FA34D"/><circle cx="285.9" cy="151.7" r="12.2" fill="#7FA34D"/><circle cx="276.0" cy="142.7" r="18.0" fill="#7FA34D"/><path d="M11.7 218 Q10.5 211.0 8.7 204.0" stroke="#7C9A54" stroke-width="1.6" fill="none" stroke-linecap="round"/><path d="M14.7 218 Q11.9 211.0 7.7 204.0" stroke="#7C9A54" stroke-width="1.6" fill="none" stroke-linecap="round"/><path d="M17.7 218 Q16.5 211.0 14.7 204.0" stroke="#7C9A54" stroke-width="1.6" fill="none" stroke-linecap="round"/><path d="M53.5 218 Q52.3 211.0 50.5 204.0" stroke="#7C9A54" stroke-width="1.6" fill="none" stroke-linecap="round"/><path d="M56.5 218 Q53.7 211.0 49.5 204.0" stroke="#7C9A54" stroke-width="1.6" fill="none" stroke-linecap="round"/><path d="M59.5 218 Q58.3 211.0 56.5 204.0" stroke="#7C9A54" stroke-width="1.6" fill="none" stroke-linecap="round"/><path d="M119.6 218 Q118.4 211.0 116.6 204.0" stroke="#7C9A54" stroke-width="1.6" fill="none" stroke-linecap="round"/><path d="M122.6 218 Q119.8 211.0 115.6 204.0" stroke="#7C9A54" stroke-width="1.6" fill="none" stroke-linecap="round"/><path d="M125.6 218 Q124.4 211.0 122.6 204.0" stroke="#7C9A54" stroke-width="1.6" fill="none" stroke-linecap="round"/><path d="M163.3 218 Q162.1 211.0 160.3 204.0" stroke="#7C9A54" stroke-width="1.6" fill="none" stroke-linecap="round"/><path d="M166.3 218 Q163.5 211.0 159.3 204.0" stroke="#7C9A54" stroke-width="1.6" fill="none" stroke-linecap="round"/><path d="M169.3 218 Q168.1 211.0 166.3 204.0" stroke="#7C9A54" stroke-width="1.6" fill="none" stroke-linecap="round"/><path d="M208.0 218 Q206.8 211.0 205.0 204.0" stroke="#7C9A54" stroke-width="1.6" fill="none" stroke-linecap="round"/><path d="M211.0 218 Q208.2 211.0 204.0 204.0" stroke="#7C9A54" stroke-width="1.6" fill="none" stroke-linecap="round"/><path d="M214.0 218 Q212.8 211.0 211.0 204.0" stroke="#7C9A54" stroke-width="1.6" fill="none" stroke-linecap="round"/><path d="M254.3 218 Q253.1 211.0 251.3 204.0" stroke="#7C9A54" stroke-width="1.6" fill="none" stroke-linecap="round"/><path d="M257.3 218 Q254.5 211.0 250.3 204.0" stroke="#7C9A54" stroke-width="1.6" fill="none" stroke-linecap="round"/><path d="M260.3 218 Q259.1 211.0 257.3 204.0" stroke="#7C9A54" stroke-width="1.6" fill="none" stroke-linecap="round"/><ellipse cx="146.7" cy="180.8" rx="34" ry="7" fill="#3B3024" fill-opacity="0.15"/><image href="/images/owl-mascot.png" x="95.2" y="92.8" width="103.0" height="90.0" preserveAspectRatio="xMidYMax meet"/><path d="M186.7 35.7 Q195.7 26.7 204.7 35.7" fill="none" stroke="#C98A2E" stroke-width="2.4" stroke-linecap="round"/><path d="M204.7 26.7 Q213.7 22.7 222.7 26.7" fill="none" stroke="#C98A2E" stroke-width="2.4" stroke-linecap="round"/></g><text x="160" y="202" font-family="Verdana, sans-serif" font-size="13" font-weight="600" text-anchor="middle" fill="#8A7A67">In the wild</text></svg>