<svg xmlns="http://www.w3.org/2000/svg" viewBox="0 0 320 220" width="320" height="220"><rect x="0" y="0" width="320" height="220" rx="12" fill="#FBF3E7"/><g transform="translate(320,0) scale(-1,1)"><rect x="0" y="150" width="320" height="70" fill="#B7CC8E"/><rect x="0.0" y="150" width="27" height="70" fill="#A6BE79" fill-opacity="0.6"/><rect x="55.0" y="150" width="27" height="70" fill="#A6BE79" fill-opacity="0.6"/><rect x="110.0" y="150" width="27" height="70" fill="#A6BE79" fill-opacity="0.6"/><rect x="165.0" y="150" width="27" height="70" fill="#A6BE79" fill-opacity="0.6"/><rect x="220.0" y="150" width="27" height="70" fill="#A6BE79" fill-opacity="0.6"/><rect x="275.0" y="150" width="27" height="70" fill="#A6BE79" fill-opacity="0.6"/><line x1="10" y1="180" x2="310" y2="180" stroke="#FFFFFF" stroke-width="2" stroke-opacity="0.6"/><ellipse cx="114.6" cy="120.4" rx="30" ry="7" fill="#3B3024" fill-opacity="0.18"/><circle cx="108.6" cy="88.4" r="34" fill="white" stroke="#3B3024" stroke-width="2.5"/><polygon points="108.6,72.4 123.6,83.4 117.6,101.4 99.6,101.4 93.6,83.4" fill="#3B3024"/><path d="M108.6 73.4 Q114.5 65.3 108.6 57.1" stroke="#3B3024" stroke-width="2" fill="none"/><path d="M122.8 83.7 Q132.3 86.8 138.3 78.7" stroke="#3B3024" stroke-width="2" fill="none"/><path d="M117.4 100.5 Q117.4 110.5 127.0 113.7" stroke="#3B3024" stroke-width="2" fill="none"/><path d="M99.8 100.5 Q90.3 103.6 90.2 113.7" stroke="#3B3024" stroke-width="2" fill="none"/><path d="M94.3 83.7 Q88.5 75.6 78.8 78.7" stroke="#3B3024" stroke-width="2" fill="none"/><ellipse cx="98.6" cy="78.4" rx="8" ry="5" fill="white" fill-opacity="0.7"/><rect x="224.0" y="150" width="44" height="10" rx="2" fill="#C98A2E"/><rect x="236.0" y="130" width="20" height="22" fill="#C98A2E"/><path d="M226.0 78 Q226.0 118 238.0 128 L254.0 128 Q266.0 118 266.0 78 Z" fill="#FFB24D"/><path d="M226.0 84 Q208.0 84 208.0 100 Q208.0 112 224.0 110" fill="none" stroke="#FFB24D" stroke-width="5"/><path d="M266.0 84 Q284.0 84 284.0 100 Q284.0 112 268.0 110" fill="none" stroke="#FFB24D" stroke-width="5"/><ellipse cx="240.0" cy="90" rx="4" ry="14" fill="white" fill-opacity="0.35"/><polygon points="246.0,96 242.0,104 234.0,105 240.0,111 238.0,119 246.0,115 254.0,119 252.0,111 258.0,105 250.0,104" fill="#FBF3E7"/><polygon points="26.8,155 15.8,185 37.8,185" fill="#FFB24D"/><rect x="15.8" y="175" width="22" height="5" fill="white"/></g><text x="160" y="202" font-family="Verdana, sans-serif" font-size="13" font-weight="600" text-anchor="middle" fill="#8A7A67">Sport &amp; teamwork</text></svg>