<svg xmlns="http://www.w3.org/2000/svg" viewBox="0 0 320 220" width="320" height="220"><rect x="0" y="0" width="320" height="220" rx="12" fill="#FBF3E7"/><g transform="translate(320,0) scale(-1,1)"><path d="M20 40 Q160 20 300 40" stroke="#3B3024" stroke-width="1.5" fill="none" opacity="0.4"/><polygon points="21.0,33.0 39.0,33.0 30.0,49.0" fill="#BA7517"/><polygon points="57.0,36.3 75.0,36.3 66.0,52.3" fill="#6E8F3D"/><polygon points="93.0,38.6 111.0,38.6 102.0,54.6" fill="#F7A026"/><polygon points="129.0,39.8 147.0,39.8 138.0,55.8" fill="#7FA7B8"/><polygon points="165.0,39.9 183.0,39.9 174.0,55.9" fill="#BA7517"/><polygon points="201.0,39.0 219.0,39.0 210.0,55.0" fill="#6E8F3D"/><polygon points="237.0,36.9 255.0,36.9 246.0,52.9" fill="#F7A026"/><polygon points="273.0,33.8 291.0,33.8 282.0,49.8" fill="#7FA7B8"/><rect x="0" y="188" width="320" height="32" fill="#DCE7C4"/><rect x="117.9" y="168.0" width="9" height="20" rx="3" fill="#7A6A50"/><rect x="134.9" y="168.0" width="9" height="20" rx="3" fill="#7A6A50"/><ellipse cx="122.4" cy="188.0" rx="8" ry="3.5" fill="#3B3024"/><ellipse cx="139.4" cy="188.0" rx="8" ry="3.5" fill="#3B3024"/><path d="M110.9 172.0 Q106.9 142.0 117.9 134.0 L143.9 134.0 Q154.9 142.0 150.9 172.0 Z" fill="#C98A2E"/><path d="M123.9 134.0 L130.9 143.0 L137.9 134.0" fill="none" stroke="#FBF3E7" stroke-width="2" stroke-linecap="round"/><path d="M146.9 140.0 Q160.9 130.0 157.9 118.0" fill="none" stroke="#C98A2E" stroke-width="7" stroke-linecap="round"/><circle cx="157.9" cy="115.0" r="4.5" fill="#E8B98A"/><path d="M114.9 140.0 Q106.9 152.0 112.9 162.0" fill="none" stroke="#C98A2E" stroke-width="7" stroke-linecap="round"/><circle cx="130.9" cy="122.0" r="14" fill="#E8B98A"/><path d="M116.9 120.0 Q115.9 98.0 130.9 99.0 Q145.9 98.0 144.9 120.0 Q140.9 109.0 130.9 110.0 Q120.9 109.0 116.9 120.0 Z" fill="#8A5A2B"/><circle cx="125.9" cy="123.0" r="1.6" fill="#3B3024"/><circle cx="135.9" cy="123.0" r="1.6" fill="#3B3024"/><path d="M125.9 129.0 Q130.9 133.0 135.9 129.0" stroke="#3B3024" stroke-width="1.6" fill="none" stroke-linecap="round"/><rect x="176.1" y="168.0" width="9" height="20" rx="3" fill="#7A6A50"/><rect x="193.1" y="168.0" width="9" height="20" rx="3" fill="#7A6A50"/><ellipse cx="180.6" cy="188.0" rx="8" ry="3.5" fill="#3B3024"/><ellipse cx="197.6" cy="188.0" rx="8" ry="3.5" fill="#3B3024"/><path d="M169.1 172.0 Q165.1 142.0 176.1 134.0 L202.1 134.0 Q213.1 142.0 209.1 172.0 Z" fill="#7FA34D"/><path d="M182.1 134.0 L189.1 143.0 L196.1 134.0" fill="none" stroke="#FBF3E7" stroke-width="2" stroke-linecap="round"/><path d="M205.1 140.0 Q213.1 152.0 207.1 162.0" fill="none" stroke="#7FA34D" stroke-width="7" stroke-linecap="round"/><path d="M173.1 140.0 Q165.1 152.0 171.1 162.0" fill="none" stroke="#7FA34D" stroke-width="7" stroke-linecap="round"/><circle cx="189.1" cy="122.0" r="14" fill="#E8B98A"/><path d="M175.1 120.0 Q174.1 98.0 189.1 99.0 Q204.1 98.0 203.1 120.0 Q199.1 109.0 189.1 110.0 Q179.1 109.0 175.1 120.0 Z" fill="#6B4423"/><circle cx="184.1" cy="123.0" r="1.6" fill="#3B3024"/><circle cx="194.1" cy="123.0" r="1.6" fill="#3B3024"/><path d="M184.1 129.0 Q189.1 133.0 194.1 129.0" stroke="#3B3024" stroke-width="1.6" fill="none" stroke-linecap="round"/><rect x="210.7" y="160" width="40" height="30" fill="#8FB9C9"/><rect x="210.7" y="153" width="40" height="9" fill="#6C93A5"/><rect x="226.7" y="153" width="8" height="37" fill="#F7A026"/><rect x="210.7" y="169" width="40" height="8" fill="#F7A026"/><polygon points="226.7,153 216.7,142 226.7,146" fill="#F7A026"/><polygon points="234.7,153 244.7,142 234.7,146" fill="#F7A026"/><path d="M48.0 52.4 L49.5 55.9 L53.0 55.9 L50.0 58.4 L51.0 62.4 L48.0 59.9 L45.0 62.4 L46.0 58.4 L43.0 55.9 L46.5 55.9 Z" fill="#F7A026" opacity="0.85"/><path d="M60.6 75.5 L62.1 79.0 L65.6 79.0 L62.6 81.5 L63.6 85.5 L60.6 83.0 L57.6 85.5 L58.6 81.5 L55.6 79.0 L59.1 79.0 Z" fill="#FFB24D" opacity="0.85"/><path d="M85.9 41.1 L87.4 44.6 L90.9 44.6 L87.9 47.1 L88.9 51.1 L85.9 48.6 L82.9 51.1 L83.9 47.1 L80.9 44.6 L84.4 44.6 Z" fill="#FFB24D" opacity="0.85"/><path d="M113.7 84.4 L115.2 87.9 L118.7 87.9 L115.7 90.4 L116.7 94.4 L113.7 91.9 L110.7 94.4 L111.7 90.4 L108.7 87.9 L112.2 87.9 Z" fill="#FFB24D" opacity="0.85"/></g><text x="160" y="202" font-family="Verdana, sans-serif" font-size="13" font-weight="600" text-anchor="middle" fill="#8A7A67">Community &amp; friends</text></svg>