<svg xmlns="http://www.w3.org/2000/svg" viewBox="0 0 320 220" width="320" height="220"><rect x="0" y="0" width="320" height="220" rx="12" fill="#FBF3E7"/><g transform="translate(320,0) scale(-1,1)"><rect x="0" y="150" width="320" height="70" fill="#B7CC8E"/><rect x="0.0" y="150" width="27" height="70" fill="#A6BE79" fill-opacity="0.6"/><rect x="55.0" y="150" width="27" height="70" fill="#A6BE79" fill-opacity="0.6"/><rect x="110.0" y="150" width="27" height="70" fill="#A6BE79" fill-opacity="0.6"/><rect x="165.0" y="150" width="27" height="70" fill="#A6BE79" fill-opacity="0.6"/><rect x="220.0" y="150" width="27" height="70" fill="#A6BE79" fill-opacity="0.6"/><rect x="275.0" y="150" width="27" height="70" fill="#A6BE79" fill-opacity="0.6"/><line x1="10" y1="180" x2="310" y2="180" stroke="#FFFFFF" stroke-width="2" stroke-opacity="0.6"/><ellipse cx="113.0" cy="130.5" rx="30" ry="7" fill="#3B3024" fill-opacity="0.18"/><circle cx="107.0" cy="98.5" r="34" fill="white" stroke="#3B3024" stroke-width="2.5"/><polygon points="107.0,82.5 122.0,93.5 116.0,111.5 98.0,111.5 92.0,93.5" fill="#3B3024"/><path d="M107.0 83.5 Q112.9 75.5 107.0 67.2" stroke="#3B3024" stroke-width="2" fill="none"/><path d="M121.3 93.9 Q130.8 97.0 136.8 88.9" stroke="#3B3024" stroke-width="2" fill="none"/><path d="M115.9 110.7 Q115.8 120.6 125.4 123.8" stroke="#3B3024" stroke-width="2" fill="none"/><path d="M98.2 110.7 Q88.7 113.7 88.7 123.8" stroke="#3B3024" stroke-width="2" fill="none"/><path d="M92.8 93.9 Q86.9 85.8 77.3 88.9" stroke="#3B3024" stroke-width="2" fill="none"/><ellipse cx="97.0" cy="88.5" rx="8" ry="5" fill="white" fill-opacity="0.7"/><rect x="218.4" y="150" width="44" height="10" rx="2" fill="#A8631A"/><rect x="230.4" y="130" width="20" height="22" fill="#A8631A"/><path d="M220.4 78 Q220.4 118 232.4 128 L248.4 128 Q260.4 118 260.4 78 Z" fill="#F7A026"/><path d="M220.4 84 Q202.4 84 202.4 100 Q202.4 112 218.4 110" fill="none" stroke="#F7A026" stroke-width="5"/><path d="M260.4 84 Q278.4 84 278.4 100 Q278.4 112 262.4 110" fill="none" stroke="#F7A026" stroke-width="5"/><ellipse cx="234.4" cy="90" rx="4" ry="14" fill="white" fill-opacity="0.35"/><polygon points="240.4,96 236.4,104 228.4,105 234.4,111 232.4,119 240.4,115 248.4,119 246.4,111 252.4,105 244.4,104" fill="#FBF3E7"/></g><text x="160" y="202" font-family="Verdana, sans-serif" font-size="13" font-weight="600" text-anchor="middle" fill="#8A7A67">Sport &amp; teamwork</text></svg>