<svg xmlns="http://www.w3.org/2000/svg" viewBox="0 0 320 220" width="320" height="220"><rect x="0" y="0" width="320" height="220" rx="12" fill="#FBF3E7"/><g transform="translate(320,0) scale(-1,1)"><g fill-opacity="0.7"><ellipse cx="29.9" cy="25.8" rx="9.8" ry="7.0" fill="#FFFFFF"/><ellipse cx="50.9" cy="25.8" rx="11.2" ry="7.7" fill="#FFFFFF"/><ellipse cx="40.4" cy="19.5" rx="12.6" ry="9.1" fill="#FFFFFF"/><ellipse cx="40.4" cy="27.9" rx="22.4" ry="7.0" fill="#FFFFFF"/></g><rect x="0" y="164" width="320" height="30" fill="#5A5148"/><rect x="0" y="164" width="320" height="4" fill="#78706600"/><rect x="-3.0" y="177" width="16" height="4" fill="#F3E6D2" fill-opacity="0.7"/><rect x="39.0" y="177" width="16" height="4" fill="#F3E6D2" fill-opacity="0.7"/><rect x="81.0" y="177" width="16" height="4" fill="#F3E6D2" fill-opacity="0.7"/><rect x="123.0" y="177" width="16" height="4" fill="#F3E6D2" fill-opacity="0.7"/><rect x="165.0" y="177" width="16" height="4" fill="#F3E6D2" fill-opacity="0.7"/><rect x="207.0" y="177" width="16" height="4" fill="#F3E6D2" fill-opacity="0.7"/><rect x="249.0" y="177" width="16" height="4" fill="#F3E6D2" fill-opacity="0.7"/><rect x="291.0" y="177" width="16" height="4" fill="#F3E6D2" fill-opacity="0.7"/><rect x="57.8" y="98" width="128" height="58" rx="10" fill="#A8631A"/><rect x="57.8" y="98" width="128" height="16" rx="8" fill="#FFB24D"/><rect x="71.8" y="108" width="24" height="20" rx="3" fill="#CFE7F0"/><rect x="103.8" y="108" width="24" height="20" rx="3" fill="#CFE7F0"/><rect x="135.8" y="108" width="24" height="20" rx="3" fill="#CFE7F0"/><line x1="77.8" y1="110" x2="83.8" y2="126" stroke="white" stroke-width="2" opacity="0.7"/><line x1="109.8" y1="110" x2="115.8" y2="126" stroke="white" stroke-width="2" opacity="0.7"/><line x1="141.8" y1="110" x2="147.8" y2="126" stroke="white" stroke-width="2" opacity="0.7"/><rect x="57.8" y="140" width="128" height="8" fill="#3B3024" opacity="0.15"/><circle cx="167.8" cy="122" r="3.2" fill="#F7A026"/><circle cx="81.8" cy="160" r="13" fill="#3B3024"/><circle cx="81.8" cy="160" r="7" fill="#B8AFA2"/><circle cx="81.8" cy="160" r="2.2" fill="#3B3024"/><circle cx="157.8" cy="160" r="13" fill="#3B3024"/><circle cx="157.8" cy="160" r="7" fill="#B8AFA2"/><circle cx="157.8" cy="160" r="2.2" fill="#3B3024"/><rect x="252.3" y="138.0" width="7.0" height="26.0" rx="2" fill="#7A5C33"/><circle cx="246.4" cy="132.1" r="11.6" fill="#6E8F3D"/><circle cx="265.1" cy="132.1" r="11.6" fill="#6E8F3D"/><circle cx="255.8" cy="123.5" r="17.0" fill="#7FA34D"/></g><text x="160" y="202" font-family="Verdana, sans-serif" font-size="13" font-weight="600" text-anchor="middle" fill="#8A7A67">Getting around</text></svg>