<svg xmlns="http://www.w3.org/2000/svg" viewBox="0 0 320 220" width="320" height="220"><rect x="0" y="0" width="320" height="220" rx="12" fill="#FBF3E7"/><line x1="70.0" y1="190.0" x2="70.0" y2="10.0" stroke="#D8C6A8" stroke-width="1"/><line x1="70.0" y1="190.0" x2="250.0" y2="190.0" stroke="#D8C6A8" stroke-width="1"/><line x1="88.0" y1="190.0" x2="88.0" y2="10.0" stroke="#D8C6A8" stroke-width="1"/><line x1="70.0" y1="172.0" x2="250.0" y2="172.0" stroke="#D8C6A8" stroke-width="1"/><line x1="106.0" y1="190.0" x2="106.0" y2="10.0" stroke="#D8C6A8" stroke-width="1"/><line x1="70.0" y1="154.0" x2="250.0" y2="154.0" stroke="#D8C6A8" stroke-width="1"/><line x1="124.0" y1="190.0" x2="124.0" y2="10.0" stroke="#D8C6A8" stroke-width="1"/><line x1="70.0" y1="136.0" x2="250.0" y2="136.0" stroke="#D8C6A8" stroke-width="1"/><line x1="142.0" y1="190.0" x2="142.0" y2="10.0" stroke="#D8C6A8" stroke-width="1"/><line x1="70.0" y1="118.0" x2="250.0" y2="118.0" stroke="#D8C6A8" stroke-width="1"/><line x1="178.0" y1="190.0" x2="178.0" y2="10.0" stroke="#D8C6A8" stroke-width="1"/><line x1="70.0" y1="82.0" x2="250.0" y2="82.0" stroke="#D8C6A8" stroke-width="1"/><line x1="196.0" y1="190.0" x2="196.0" y2="10.0" stroke="#D8C6A8" stroke-width="1"/><line x1="70.0" y1="64.0" x2="250.0" y2="64.0" stroke="#D8C6A8" stroke-width="1"/><line x1="214.0" y1="190.0" x2="214.0" y2="10.0" stroke="#D8C6A8" stroke-width="1"/><line x1="70.0" y1="46.0" x2="250.0" y2="46.0" stroke="#D8C6A8" stroke-width="1"/><line x1="232.0" y1="190.0" x2="232.0" y2="10.0" stroke="#D8C6A8" stroke-width="1"/><line x1="70.0" y1="28.0" x2="250.0" y2="28.0" stroke="#D8C6A8" stroke-width="1"/><line x1="250.0" y1="190.0" x2="250.0" y2="10.0" stroke="#D8C6A8" stroke-width="1"/><line x1="70.0" y1="10.0" x2="250.0" y2="10.0" stroke="#D8C6A8" stroke-width="1"/><line x1="70.0" y1="100.0" x2="250.0" y2="100.0" stroke="#3B3024" stroke-width="2"/><line x1="160.0" y1="190.0" x2="160.0" y2="10.0" stroke="#3B3024" stroke-width="2"/><circle cx="106.0" cy="46.0" r="6" fill="#BA7517"/><text x="122.0" y="38.0" font-family="Verdana, sans-serif" font-size="14" font-weight="600" text-anchor="start" fill="#3B3024">A(-3, 3)</text><text x="160" y="208" font-family="Verdana, sans-serif" font-size="13" font-weight="600" text-anchor="middle" fill="#8A7A67">1 right, 0 up</text></svg>